<svg width="271" height="46" viewBox="0 0 271 46" fill="none" xmlns="http://www.w3.org/2000/svg">
<path d="M1.39964 19.0713V23.1997C1.39964 23.6743 1.69885 24.0974 2.14635 24.2555L6.71827 25.8707L11.2226 23.2702L9.79748 17.9515H2.51935C1.90096 17.9515 1.39964 18.4529 1.39964 19.0713Z" fill="black" stroke="black" stroke-width="0.559856"/>
<path d="M37.2304 6.30127V2.34931C37.2304 1.93129 36.7889 1.66071 36.4164 1.85046L34.4829 2.83543L32.4716 10.3417L36.1107 8.24067C36.8036 7.84064 37.2304 7.10134 37.2304 6.30127Z" fill="black" stroke="black" stroke-width="0.559856"/>
<path d="M0.27993 39.3757V43.6225C0.27993 44.0426 0.725376 44.313 1.09808 44.1192L7.27813 40.9056V37.0709L0.694885 38.8349C0.450125 38.9005 0.27993 39.1223 0.27993 39.3757Z" fill="black" stroke="black" stroke-width="0.559856"/>
<path d="M37.2304 31.1081V26.9092L29.6724 27.749V32.2278H36.1107C36.7291 32.2278 37.2304 31.7265 37.2304 31.1081Z" fill="black" stroke="black" stroke-width="0.559856"/>
<g filter="url(#filter0_d_13_134)">
<path d="M2.10982 16.8645L35.0445 0.192466C36.6573 -0.623995 38.2447 1.33447 37.112 2.74336L25.5071 17.178C24.8429 18.0042 25.1007 19.2314 26.0411 19.7205L36.6903 25.2587C37.9915 25.9353 37.8612 27.8378 36.4798 28.3306L2.30488 40.5247C0.601656 41.1324 -0.727183 38.9887 0.574768 37.7336L10.6065 28.0631C11.3757 27.3216 11.2662 26.0598 10.3807 25.4619L1.92853 19.755C0.866426 19.0379 0.966435 17.4433 2.10982 16.8645Z" fill="#17A34A"/>
<path d="M35.4234 0.941406C36.2297 0.533235 37.0235 1.51236 36.4576 2.2168L24.8521 16.6514C23.8558 17.8906 24.2432 19.7322 25.6539 20.4658L36.3033 26.0039C36.9534 26.3424 36.8883 27.2936 36.1978 27.54L2.023 39.7334C1.17138 40.0373 0.506803 38.9654 1.15777 38.3379L11.189 28.668C12.3428 27.5557 12.1784 25.6624 10.8502 24.7656L2.398 19.0586C1.8675 18.6999 1.91734 17.9026 2.48882 17.6133L35.4234 0.941406Z" stroke="black" stroke-width="1.67957"/>
</g>
<path d="M257.846 27.1151C257.846 24.0919 258.443 21.5725 259.637 19.5571C260.869 17.5416 262.399 16.03 264.228 15.0222C266.094 14.0145 268.035 13.5106 270.05 13.5106V22.0204C268.333 22.0204 266.71 22.2071 265.18 22.5803C263.687 22.9535 262.474 23.532 261.541 24.3158C260.607 25.0623 260.141 26.0327 260.141 27.2271L257.846 27.1151ZM251.407 41.6154V13.6226H260.141V41.6154H251.407Z" fill="black"/>
<path d="M233.516 42.2871C230.605 42.2871 228.029 41.6713 225.79 40.4396C223.55 39.2079 221.796 37.491 220.527 35.2889C219.258 33.0868 218.624 30.5302 218.624 27.6189C218.624 24.7077 219.258 22.151 220.527 19.9489C221.796 17.7468 223.55 16.0299 225.79 14.7982C228.067 13.5665 230.679 12.9507 233.628 12.9507C236.278 12.9507 238.666 13.5852 240.794 14.8542C242.921 16.1232 244.601 18.0267 245.833 20.5647C247.102 23.0654 247.736 26.1633 247.736 29.8583H239.002C239.04 27.6562 238.853 25.8087 238.443 24.3158C238.069 22.7855 237.453 21.6471 236.595 20.9006C235.774 20.1168 234.673 19.7249 233.292 19.7249C231.986 19.7249 230.903 20.0422 230.045 20.6767C229.186 21.3112 228.552 22.2443 228.141 23.476C227.731 24.6703 227.525 26.1819 227.525 28.0108C227.525 29.6531 227.805 30.9967 228.365 32.0418C228.962 33.0495 229.727 33.796 230.661 34.2812C231.594 34.7664 232.62 35.009 233.74 35.009C235.083 35.009 236.203 34.7104 237.099 34.1132C238.032 33.5161 238.666 32.7509 239.002 31.8178L246.952 34.5051C246.206 36.2967 245.142 37.771 243.761 38.928C242.418 40.085 240.869 40.9435 239.114 41.5033C237.36 42.0259 235.494 42.2871 233.516 42.2871ZM224.222 29.8583L224.278 23.9239H243.593V29.8583H224.222Z" fill="black"/>
<path d="M187.989 41.6153L187.877 2.25745H196.61L196.722 41.6153H187.989ZM206.016 41.6153V27.283L214.75 25.6034V41.6153H206.016ZM206.016 27.283C206.016 25.7901 205.848 24.6144 205.512 23.7559C205.176 22.8601 204.691 22.207 204.056 21.7964C203.422 21.3859 202.675 21.1619 201.817 21.1246C200.137 21.0873 198.868 21.5538 198.01 22.5242C197.152 23.4573 196.722 24.8943 196.722 26.8351H194.091C194.091 23.8865 194.52 21.3859 195.379 19.333C196.274 17.2429 197.506 15.6567 199.074 14.5743C200.641 13.4919 202.433 12.9507 204.448 12.9507C207.882 12.9507 210.457 13.9771 212.174 16.0299C213.891 18.0827 214.75 21.2739 214.75 25.6034L206.016 27.283Z" fill="black"/>
<path d="M171.145 42.2871C168.159 42.2871 165.491 41.6713 163.139 40.4396C160.825 39.1706 159.015 37.435 157.709 35.2329C156.402 32.9935 155.749 30.4555 155.749 27.6189C155.749 24.745 156.402 22.207 157.709 20.0049C159.015 17.8028 160.807 16.0859 163.083 14.8542C165.397 13.5852 168.047 12.9507 171.033 12.9507C173.907 12.9507 176.539 13.6785 178.927 15.1341C181.316 16.5897 183.033 18.6985 184.078 21.4605L175.792 24.2598C175.381 23.364 174.691 22.6362 173.721 22.0763C172.787 21.4792 171.742 21.1806 170.585 21.1806C169.428 21.1806 168.402 21.4605 167.506 22.0203C166.648 22.5429 165.957 23.2894 165.435 24.2598C164.949 25.2302 164.707 26.3499 164.707 27.6189C164.707 28.8879 164.949 30.0076 165.435 30.978C165.957 31.9111 166.666 32.6576 167.562 33.2175C168.495 33.7773 169.54 34.0573 170.697 34.0573C171.854 34.0573 172.899 33.7587 173.833 33.1615C174.766 32.5643 175.456 31.7805 175.904 30.8101L184.19 33.6094C183.107 36.4086 181.372 38.5548 178.983 40.0477C176.632 41.5407 174.019 42.2871 171.145 42.2871Z" fill="black"/>
<path d="M139.313 42.2871C136.402 42.2871 133.827 41.6713 131.587 40.4396C129.348 39.2079 127.594 37.491 126.325 35.2889C125.056 33.0868 124.421 30.5302 124.421 27.6189C124.421 24.7077 125.056 22.151 126.325 19.9489C127.594 17.7468 129.348 16.0299 131.587 14.7982C133.864 13.5665 136.477 12.9507 139.425 12.9507C142.075 12.9507 144.464 13.5852 146.592 14.8542C148.719 16.1232 150.399 18.0267 151.63 20.5647C152.899 23.0654 153.534 26.1633 153.534 29.8583H144.8C144.837 27.6562 144.651 25.8087 144.24 24.3158C143.867 22.7855 143.251 21.6471 142.393 20.9006C141.572 20.1168 140.471 19.7249 139.09 19.7249C137.783 19.7249 136.701 20.0422 135.842 20.6767C134.984 21.3112 134.349 22.2443 133.939 23.476C133.528 24.6703 133.323 26.1819 133.323 28.0108C133.323 29.6531 133.603 30.9967 134.163 32.0418C134.76 33.0495 135.525 33.796 136.458 34.2812C137.391 34.7664 138.418 35.009 139.537 35.009C140.881 35.009 142.001 34.7104 142.897 34.1132C143.83 33.5161 144.464 32.7509 144.8 31.8178L152.75 34.5051C152.004 36.2967 150.94 37.771 149.559 38.928C148.215 40.085 146.666 40.9435 144.912 41.5033C143.158 42.0259 141.292 42.2871 139.313 42.2871ZM130.02 29.8583L130.076 23.9239H149.391V29.8583H130.02Z" fill="black"/>
<path d="M107.986 42.2871C105.074 42.2871 102.499 41.6713 100.26 40.4396C98.0202 39.2079 96.266 37.491 94.997 35.2889C93.7279 33.0868 93.0934 30.5302 93.0934 27.6189C93.0934 24.7077 93.7279 22.151 94.997 19.9489C96.266 17.7468 98.0202 16.0299 100.26 14.7982C102.536 13.5665 105.149 12.9507 108.098 12.9507C110.748 12.9507 113.136 13.5852 115.264 14.8542C117.391 16.1232 119.071 18.0267 120.302 20.5647C121.571 23.0654 122.206 26.1633 122.206 29.8583H113.472C113.51 27.6562 113.323 25.8087 112.912 24.3158C112.539 22.7855 111.923 21.6471 111.065 20.9006C110.244 20.1168 109.143 19.7249 107.762 19.7249C106.455 19.7249 105.373 20.0422 104.515 20.6767C103.656 21.3112 103.022 22.2443 102.611 23.476C102.2 24.6703 101.995 26.1819 101.995 28.0108C101.995 29.6531 102.275 30.9967 102.835 32.0418C103.432 33.0495 104.197 33.796 105.13 34.2812C106.063 34.7664 107.09 35.009 108.21 35.009C109.553 35.009 110.673 34.7104 111.569 34.1132C112.502 33.5161 113.136 32.7509 113.472 31.8178L121.422 34.5051C120.676 36.2967 119.612 37.771 118.231 38.928C116.887 40.085 115.338 40.9435 113.584 41.5033C111.83 42.0259 109.964 42.2871 107.986 42.2871ZM98.692 29.8583L98.748 23.9239H118.063V29.8583H98.692Z" fill="black"/>
<path d="M66.7076 28.4588V20.1729H73.9857C75.0308 20.1729 75.9639 19.9676 76.785 19.5571C77.6061 19.1465 78.2406 18.5866 78.6885 17.8775C79.1737 17.131 79.4163 16.3099 79.4163 15.4141C79.4163 14.0331 78.8938 12.8948 77.8487 11.999C76.841 11.1032 75.4974 10.6554 73.8178 10.6554H66.7076V2.42547L74.2657 2.36948C77.1023 2.33216 79.6216 2.87335 81.8237 3.99306C84.0258 5.11278 85.7427 6.66171 86.9744 8.63987C88.2434 10.618 88.8779 12.8761 88.8779 15.4141C88.8779 17.9521 88.2434 20.2102 86.9744 22.1884C85.7054 24.1665 83.9512 25.7155 81.7118 26.8352C79.5097 27.9176 76.9716 28.4588 74.0977 28.4588H66.7076ZM58.8696 41.6154V2.42547H67.8833V41.6154H58.8696ZM80.1442 41.6154L71.2984 26.0514L78.0727 21.0687L90.4455 41.6154H80.1442Z" fill="black"/>
<defs>
<filter id="filter0_d_13_134" x="0.0503464" y="0" width="37.5448" height="45.6696" filterUnits="userSpaceOnUse" color-interpolation-filters="sRGB">
<feFlood flood-opacity="0" result="BackgroundImageFix"/>
<feColorMatrix in="SourceAlpha" type="matrix" values="0 0 0 0 0 0 0 0 0 0 0 0 0 0 0 0 0 0 127 0" result="hardAlpha"/>
<feOffset dy="5.0387"/>
<feComposite in2="hardAlpha" operator="out"/>
<feColorMatrix type="matrix" values="0 0 0 0 0 0 0 0 0 0 0 0 0 0 0 0 0 0 1 0"/>
<feBlend mode="normal" in2="BackgroundImageFix" result="effect1_dropShadow_13_134"/>
<feBlend mode="normal" in="SourceGraphic" in2="effect1_dropShadow_13_134" result="shape"/>
</filter>
</defs>
</svg>
